# xmcd CD database file
#
# Track frame offsets:
#	150
#	16940
#	33270
#	49550
#	63772
#	78685
#	94080
#	110750
#	124952
#	140142
#
# Disc length: 2059 seconds
#
# Revision: 3
# Processed by: cddbd v1.4PL0 Copyright (c) Steve Scherf et al.
# Submitted via: CDex 1.40Release
#
DISCID=8508090a
DTITLE=Lee Greenwood - Greatest Hits
DYEAR=1985
DGENRE=Country
TTITLE0=Fool's Gold
TTITLE1=Somebody's Gonna Love You
TTITLE2=It Turns Me Inside Out
TTITLE3=She's Lying
TTITLE4=Dixie Road
TTITLE5=Ain't No Trick (It Takes Magic)
TTITLE6=Ring On Her Finger, Time On Her Hands
TTITLE7=I.O.U.
TTITLE8=Going, Going, Gone
TTITLE9=God Bless The USA
EXTD=YEAR: 1985 ID3G: 2
EXTT0=
EXTT1=
EXTT2=
EXTT3=
EXTT4=
EXTT5=It Takes Magic
EXTT6=
EXTT7=
EXTT8=
EXTT9=
PLAYORDER=
